<mxfile host="app.diagrams.net" agent="Mozilla/5.0 (Windows NT 10.0; Win64; x64) AppleWebKit/537.36 (KHTML, like Gecko) Chrome/136.0.0.0 Safari/537.36" version="26.2.14">
  <diagram name="Page-1" id="zTXv_oaJFtxkT4fxybLn">
    <mxGraphModel dx="2587" dy="1013" grid="1" gridSize="10" guides="1" tooltips="1" connect="1" arrows="1" fold="1" page="1" pageScale="1" pageWidth="850" pageHeight="1100" math="0" shadow="0">
      <root>
        <mxCell id="0" />
        <mxCell id="1" parent="0" />
        <mxCell id="cWW2CqV2LF-lZj4RDST2-1" value="" style="rounded=0;whiteSpace=wrap;html=1;" vertex="1" parent="1">
          <mxGeometry x="-610" y="110" width="1240" height="1985" as="geometry" />
        </mxCell>
        <mxCell id="cWW2CqV2LF-lZj4RDST2-2" value="" style="ellipse;whiteSpace=wrap;html=1;aspect=fixed;fillColor=#000000;" vertex="1" parent="1">
          <mxGeometry x="-40" y="180" width="40" height="40" as="geometry" />
        </mxCell>
        <mxCell id="cWW2CqV2LF-lZj4RDST2-3" value="Dar click al boton de &quot;New project&quot;" style="rounded=1;whiteSpace=wrap;html=1;" vertex="1" parent="1">
          <mxGeometry x="-80" y="260" width="120" height="60" as="geometry" />
        </mxCell>
        <mxCell id="cWW2CqV2LF-lZj4RDST2-4" value="Crear un proyecto nuevo" style="text;html=1;align=center;verticalAlign=middle;resizable=0;points=[];autosize=1;strokeColor=none;fillColor=none;" vertex="1" parent="1">
          <mxGeometry x="330" y="110" width="160" height="30" as="geometry" />
        </mxCell>
        <mxCell id="cWW2CqV2LF-lZj4RDST2-6" value="Ingresar la información en los respectivos campos de texto" style="rounded=1;whiteSpace=wrap;html=1;" vertex="1" parent="1">
          <mxGeometry x="-15" y="590" width="150" height="60" as="geometry" />
        </mxCell>
        <mxCell id="cWW2CqV2LF-lZj4RDST2-12" value="Popup, para generar texto con IA" style="rounded=1;whiteSpace=wrap;html=1;" vertex="1" parent="1">
          <mxGeometry x="-325" y="500" width="120" height="60" as="geometry" />
        </mxCell>
        <mxCell id="cWW2CqV2LF-lZj4RDST2-13" value="Escribir y enviar la información a la IA" style="rounded=1;whiteSpace=wrap;html=1;" vertex="1" parent="1">
          <mxGeometry x="-325" y="598" width="120" height="60" as="geometry" />
        </mxCell>
        <mxCell id="cWW2CqV2LF-lZj4RDST2-15" value="Aceptar los cambios" style="text;html=1;align=center;verticalAlign=middle;resizable=0;points=[];autosize=1;strokeColor=none;fillColor=none;" vertex="1" parent="1">
          <mxGeometry x="-330" y="688" width="130" height="30" as="geometry" />
        </mxCell>
        <mxCell id="cWW2CqV2LF-lZj4RDST2-20" value="Se mantiene la información proporcionada por la IA" style="rounded=1;whiteSpace=wrap;html=1;" vertex="1" parent="1">
          <mxGeometry x="-230" y="808" width="120" height="60" as="geometry" />
        </mxCell>
        <mxCell id="cWW2CqV2LF-lZj4RDST2-21" value="Se borra la información proporcionada por la IA" style="rounded=1;whiteSpace=wrap;html=1;" vertex="1" parent="1">
          <mxGeometry x="-380" y="808" width="120" height="60" as="geometry" />
        </mxCell>
        <mxCell id="cWW2CqV2LF-lZj4RDST2-25" value="" style="group" vertex="1" connectable="0" parent="1">
          <mxGeometry x="-325" y="748" width="150" height="30" as="geometry" />
        </mxCell>
        <mxCell id="cWW2CqV2LF-lZj4RDST2-7" value="" style="html=1;whiteSpace=wrap;aspect=fixed;shape=isoRectangle;" vertex="1" parent="cWW2CqV2LF-lZj4RDST2-25">
          <mxGeometry x="60" y="3" width="40" height="24" as="geometry" />
        </mxCell>
        <mxCell id="cWW2CqV2LF-lZj4RDST2-23" value="No" style="text;html=1;align=center;verticalAlign=middle;resizable=0;points=[];autosize=1;strokeColor=none;fillColor=none;" vertex="1" parent="cWW2CqV2LF-lZj4RDST2-25">
          <mxGeometry width="40" height="30" as="geometry" />
        </mxCell>
        <mxCell id="cWW2CqV2LF-lZj4RDST2-24" value="Si" style="text;html=1;align=center;verticalAlign=middle;resizable=0;points=[];autosize=1;strokeColor=none;fillColor=none;" vertex="1" parent="cWW2CqV2LF-lZj4RDST2-25">
          <mxGeometry x="120" width="30" height="30" as="geometry" />
        </mxCell>
        <mxCell id="cWW2CqV2LF-lZj4RDST2-30" value="Añadir miembros al proyecto" style="rounded=1;whiteSpace=wrap;html=1;" vertex="1" parent="1">
          <mxGeometry x="-10" y="718" width="140" height="60" as="geometry" />
        </mxCell>
        <mxCell id="cWW2CqV2LF-lZj4RDST2-31" value="Añadir achivos de contexto para la IA" style="rounded=1;whiteSpace=wrap;html=1;" vertex="1" parent="1">
          <mxGeometry x="-87.5" y="1120" width="140" height="60" as="geometry" />
        </mxCell>
        <mxCell id="cWW2CqV2LF-lZj4RDST2-32" value="Añadir links de contexto para la IA" style="rounded=1;whiteSpace=wrap;html=1;" vertex="1" parent="1">
          <mxGeometry x="57.5" y="1300" width="140" height="60" as="geometry" />
        </mxCell>
        <mxCell id="cWW2CqV2LF-lZj4RDST2-33" value="Popup con la lista de usuarios disponible para añadir al proyecto" style="rounded=1;whiteSpace=wrap;html=1;" vertex="1" parent="1">
          <mxGeometry x="200" y="718" width="140" height="60" as="geometry" />
        </mxCell>
        <mxCell id="cWW2CqV2LF-lZj4RDST2-39" value="hacer click al usuario" style="text;html=1;align=center;verticalAlign=middle;resizable=0;points=[];autosize=1;strokeColor=none;fillColor=none;" vertex="1" parent="1">
          <mxGeometry x="200" y="823" width="140" height="30" as="geometry" />
        </mxCell>
        <mxCell id="cWW2CqV2LF-lZj4RDST2-40" value="Se cierra el popup de la lista de usuarios disponibles" style="rounded=1;whiteSpace=wrap;html=1;" vertex="1" parent="1">
          <mxGeometry x="300" y="920" width="140" height="60" as="geometry" />
        </mxCell>
        <mxCell id="cWW2CqV2LF-lZj4RDST2-41" value="Se añade el usuario a la tabla de miembros del equipo del proyecto" style="rounded=1;whiteSpace=wrap;html=1;" vertex="1" parent="1">
          <mxGeometry x="110" y="920" width="140" height="60" as="geometry" />
        </mxCell>
        <mxCell id="cWW2CqV2LF-lZj4RDST2-42" value="assignar un rol al usuario" style="text;html=1;align=center;verticalAlign=middle;resizable=0;points=[];autosize=1;strokeColor=none;fillColor=none;" vertex="1" parent="1">
          <mxGeometry x="290" y="1020" width="160" height="30" as="geometry" />
        </mxCell>
        <mxCell id="cWW2CqV2LF-lZj4RDST2-43" value="" style="group" vertex="1" connectable="0" parent="1">
          <mxGeometry x="295" y="1070" width="150" height="30" as="geometry" />
        </mxCell>
        <mxCell id="cWW2CqV2LF-lZj4RDST2-44" value="" style="html=1;whiteSpace=wrap;aspect=fixed;shape=isoRectangle;" vertex="1" parent="cWW2CqV2LF-lZj4RDST2-43">
          <mxGeometry x="60" y="3" width="40" height="24" as="geometry" />
        </mxCell>
        <mxCell id="cWW2CqV2LF-lZj4RDST2-45" value="No" style="text;html=1;align=center;verticalAlign=middle;resizable=0;points=[];autosize=1;strokeColor=none;fillColor=none;" vertex="1" parent="cWW2CqV2LF-lZj4RDST2-43">
          <mxGeometry width="40" height="30" as="geometry" />
        </mxCell>
        <mxCell id="cWW2CqV2LF-lZj4RDST2-46" value="Si" style="text;html=1;align=center;verticalAlign=middle;resizable=0;points=[];autosize=1;strokeColor=none;fillColor=none;" vertex="1" parent="cWW2CqV2LF-lZj4RDST2-43">
          <mxGeometry x="120" width="30" height="30" as="geometry" />
        </mxCell>
        <mxCell id="cWW2CqV2LF-lZj4RDST2-47" value="El miembro del equipo se añade sin ningun rol" style="rounded=1;whiteSpace=wrap;html=1;" vertex="1" parent="1">
          <mxGeometry x="210" y="1120" width="140" height="60" as="geometry" />
        </mxCell>
        <mxCell id="cWW2CqV2LF-lZj4RDST2-48" value="El miembro del equipo se añade con el rol deseado" style="rounded=1;whiteSpace=wrap;html=1;" vertex="1" parent="1">
          <mxGeometry x="400" y="1120" width="140" height="60" as="geometry" />
        </mxCell>
        <mxCell id="cWW2CqV2LF-lZj4RDST2-49" value="Se abre navegador el naveador de archivos" style="rounded=1;whiteSpace=wrap;html=1;" vertex="1" parent="1">
          <mxGeometry x="-250" y="1300" width="140" height="60" as="geometry" />
        </mxCell>
        <mxCell id="cWW2CqV2LF-lZj4RDST2-50" value="" style="group" vertex="1" connectable="0" parent="1">
          <mxGeometry x="192.5" y="880" width="155" height="30" as="geometry" />
        </mxCell>
        <mxCell id="cWW2CqV2LF-lZj4RDST2-51" value="" style="html=1;whiteSpace=wrap;aspect=fixed;shape=isoRectangle;" vertex="1" parent="cWW2CqV2LF-lZj4RDST2-50">
          <mxGeometry x="60" y="3" width="40" height="24" as="geometry" />
        </mxCell>
        <mxCell id="cWW2CqV2LF-lZj4RDST2-52" value="Si" style="text;html=1;align=center;verticalAlign=middle;resizable=0;points=[];autosize=1;strokeColor=none;fillColor=none;" vertex="1" parent="cWW2CqV2LF-lZj4RDST2-50">
          <mxGeometry x="5" width="30" height="30" as="geometry" />
        </mxCell>
        <mxCell id="cWW2CqV2LF-lZj4RDST2-53" value="No" style="text;html=1;align=center;verticalAlign=middle;resizable=0;points=[];autosize=1;strokeColor=none;fillColor=none;" vertex="1" parent="cWW2CqV2LF-lZj4RDST2-50">
          <mxGeometry x="115" width="40" height="30" as="geometry" />
        </mxCell>
        <mxCell id="cWW2CqV2LF-lZj4RDST2-54" value="es un tipo de archivo valido" style="text;html=1;align=center;verticalAlign=middle;resizable=0;points=[];autosize=1;strokeColor=none;fillColor=none;" vertex="1" parent="1">
          <mxGeometry x="-125" y="1560" width="170" height="30" as="geometry" />
        </mxCell>
        <mxCell id="cWW2CqV2LF-lZj4RDST2-55" value="" style="group" vertex="1" connectable="0" parent="1">
          <mxGeometry x="-115" y="1610" width="150" height="30" as="geometry" />
        </mxCell>
        <mxCell id="cWW2CqV2LF-lZj4RDST2-56" value="" style="html=1;whiteSpace=wrap;aspect=fixed;shape=isoRectangle;" vertex="1" parent="cWW2CqV2LF-lZj4RDST2-55">
          <mxGeometry x="60" y="3" width="40" height="24" as="geometry" />
        </mxCell>
        <mxCell id="cWW2CqV2LF-lZj4RDST2-57" value="No" style="text;html=1;align=center;verticalAlign=middle;resizable=0;points=[];autosize=1;strokeColor=none;fillColor=none;" vertex="1" parent="cWW2CqV2LF-lZj4RDST2-55">
          <mxGeometry width="40" height="30" as="geometry" />
        </mxCell>
        <mxCell id="cWW2CqV2LF-lZj4RDST2-58" value="Si" style="text;html=1;align=center;verticalAlign=middle;resizable=0;points=[];autosize=1;strokeColor=none;fillColor=none;" vertex="1" parent="cWW2CqV2LF-lZj4RDST2-55">
          <mxGeometry x="120" width="30" height="30" as="geometry" />
        </mxCell>
        <mxCell id="cWW2CqV2LF-lZj4RDST2-59" value="Aparece mensaje de error" style="rounded=1;whiteSpace=wrap;html=1;" vertex="1" parent="1">
          <mxGeometry x="-200" y="1670" width="140" height="60" as="geometry" />
        </mxCell>
        <mxCell id="cWW2CqV2LF-lZj4RDST2-60" value="Se añade el archivo a la lista de &quot;context files&quot;" style="rounded=1;whiteSpace=wrap;html=1;" vertex="1" parent="1">
          <mxGeometry y="1670" width="140" height="60" as="geometry" />
        </mxCell>
        <mxCell id="cWW2CqV2LF-lZj4RDST2-61" value="Popup para ingresar link" style="rounded=1;whiteSpace=wrap;html=1;" vertex="1" parent="1">
          <mxGeometry x="315" y="1655" width="140" height="60" as="geometry" />
        </mxCell>
        <mxCell id="cWW2CqV2LF-lZj4RDST2-62" value="" style="group" vertex="1" connectable="0" parent="1">
          <mxGeometry x="335" y="1595" width="155" height="30" as="geometry" />
        </mxCell>
        <mxCell id="cWW2CqV2LF-lZj4RDST2-63" value="" style="html=1;whiteSpace=wrap;aspect=fixed;shape=isoRectangle;" vertex="1" parent="cWW2CqV2LF-lZj4RDST2-62">
          <mxGeometry x="60" y="3" width="40" height="24" as="geometry" />
        </mxCell>
        <mxCell id="cWW2CqV2LF-lZj4RDST2-64" value="Si" style="text;html=1;align=center;verticalAlign=middle;resizable=0;points=[];autosize=1;strokeColor=none;fillColor=none;" vertex="1" parent="cWW2CqV2LF-lZj4RDST2-62">
          <mxGeometry x="5" width="30" height="30" as="geometry" />
        </mxCell>
        <mxCell id="cWW2CqV2LF-lZj4RDST2-65" value="No" style="text;html=1;align=center;verticalAlign=middle;resizable=0;points=[];autosize=1;strokeColor=none;fillColor=none;" vertex="1" parent="cWW2CqV2LF-lZj4RDST2-62">
          <mxGeometry x="115" width="40" height="30" as="geometry" />
        </mxCell>
        <mxCell id="cWW2CqV2LF-lZj4RDST2-66" value="es un tipo de link valido" style="text;html=1;align=center;verticalAlign=middle;resizable=0;points=[];autosize=1;strokeColor=none;fillColor=none;" vertex="1" parent="1">
          <mxGeometry x="995" y="405" width="150" height="30" as="geometry" />
        </mxCell>
        <mxCell id="cWW2CqV2LF-lZj4RDST2-67" value="" style="group" vertex="1" connectable="0" parent="1">
          <mxGeometry x="1030" y="460" width="150" height="30" as="geometry" />
        </mxCell>
        <mxCell id="cWW2CqV2LF-lZj4RDST2-68" value="" style="html=1;whiteSpace=wrap;aspect=fixed;shape=isoRectangle;" vertex="1" parent="cWW2CqV2LF-lZj4RDST2-67">
          <mxGeometry x="60" y="3" width="40" height="24" as="geometry" />
        </mxCell>
        <mxCell id="cWW2CqV2LF-lZj4RDST2-69" value="No" style="text;html=1;align=center;verticalAlign=middle;resizable=0;points=[];autosize=1;strokeColor=none;fillColor=none;" vertex="1" parent="cWW2CqV2LF-lZj4RDST2-67">
          <mxGeometry width="40" height="30" as="geometry" />
        </mxCell>
        <mxCell id="cWW2CqV2LF-lZj4RDST2-70" value="Si" style="text;html=1;align=center;verticalAlign=middle;resizable=0;points=[];autosize=1;strokeColor=none;fillColor=none;" vertex="1" parent="cWW2CqV2LF-lZj4RDST2-67">
          <mxGeometry x="120" width="30" height="30" as="geometry" />
        </mxCell>
        <mxCell id="cWW2CqV2LF-lZj4RDST2-71" value="Aparece mensaje de error" style="rounded=1;whiteSpace=wrap;html=1;" vertex="1" parent="1">
          <mxGeometry x="990" y="520" width="140" height="60" as="geometry" />
        </mxCell>
        <mxCell id="cWW2CqV2LF-lZj4RDST2-72" value="Se añade el link a la lista de &quot;context link&quot;" style="rounded=1;whiteSpace=wrap;html=1;" vertex="1" parent="1">
          <mxGeometry x="1155" y="520" width="140" height="60" as="geometry" />
        </mxCell>
        <mxCell id="cWW2CqV2LF-lZj4RDST2-73" value="Hacer click al boton de generar proyecto" style="rounded=1;whiteSpace=wrap;html=1;" vertex="1" parent="1">
          <mxGeometry x="1190" y="170" width="140" height="60" as="geometry" />
        </mxCell>
        <mxCell id="cWW2CqV2LF-lZj4RDST2-74" value="el proyecto cuenta con nombre" style="text;html=1;align=center;verticalAlign=middle;resizable=0;points=[];autosize=1;strokeColor=none;fillColor=none;" vertex="1" parent="1">
          <mxGeometry x="1195" y="275" width="190" height="30" as="geometry" />
        </mxCell>
        <mxCell id="cWW2CqV2LF-lZj4RDST2-79" value="Añadir nombre al proyecto" style="rounded=1;whiteSpace=wrap;html=1;" vertex="1" parent="1">
          <mxGeometry x="1180" y="390" width="140" height="60" as="geometry" />
        </mxCell>
        <mxCell id="cWW2CqV2LF-lZj4RDST2-80" value="" style="group" vertex="1" connectable="0" parent="1">
          <mxGeometry x="1210" y="340" width="150" height="30" as="geometry" />
        </mxCell>
        <mxCell id="cWW2CqV2LF-lZj4RDST2-81" value="" style="html=1;whiteSpace=wrap;aspect=fixed;shape=isoRectangle;" vertex="1" parent="cWW2CqV2LF-lZj4RDST2-80">
          <mxGeometry x="60" y="3" width="40" height="24" as="geometry" />
        </mxCell>
        <mxCell id="cWW2CqV2LF-lZj4RDST2-82" value="No" style="text;html=1;align=center;verticalAlign=middle;resizable=0;points=[];autosize=1;strokeColor=none;fillColor=none;" vertex="1" parent="cWW2CqV2LF-lZj4RDST2-80">
          <mxGeometry width="40" height="30" as="geometry" />
        </mxCell>
        <mxCell id="cWW2CqV2LF-lZj4RDST2-83" value="Si" style="text;html=1;align=center;verticalAlign=middle;resizable=0;points=[];autosize=1;strokeColor=none;fillColor=none;" vertex="1" parent="cWW2CqV2LF-lZj4RDST2-80">
          <mxGeometry x="120" width="30" height="30" as="geometry" />
        </mxCell>
        <mxCell id="cWW2CqV2LF-lZj4RDST2-93" value="" style="group" vertex="1" connectable="0" parent="1">
          <mxGeometry x="-97.5" y="520" width="155" height="30" as="geometry" />
        </mxCell>
        <mxCell id="cWW2CqV2LF-lZj4RDST2-94" value="" style="html=1;whiteSpace=wrap;aspect=fixed;shape=isoRectangle;" vertex="1" parent="cWW2CqV2LF-lZj4RDST2-93">
          <mxGeometry x="57.5" y="3" width="40" height="24" as="geometry" />
        </mxCell>
        <mxCell id="cWW2CqV2LF-lZj4RDST2-95" value="Si" style="text;html=1;align=center;verticalAlign=middle;resizable=0;points=[];autosize=1;strokeColor=none;fillColor=none;" vertex="1" parent="1">
          <mxGeometry x="-127.5" y="517" width="30" height="30" as="geometry" />
        </mxCell>
        <mxCell id="cWW2CqV2LF-lZj4RDST2-96" value="No" style="text;html=1;align=center;verticalAlign=middle;resizable=0;points=[];autosize=1;strokeColor=none;fillColor=none;" vertex="1" parent="1">
          <mxGeometry x="40" y="517" width="40" height="30" as="geometry" />
        </mxCell>
        <mxCell id="cWW2CqV2LF-lZj4RDST2-97" value="Se da click en generar campos de texto con IA" style="rounded=1;whiteSpace=wrap;html=1;" vertex="1" parent="1">
          <mxGeometry x="-92.5" y="390" width="150" height="60" as="geometry" />
        </mxCell>
        <mxCell id="cWW2CqV2LF-lZj4RDST2-102" value="" style="group" vertex="1" connectable="0" parent="1">
          <mxGeometry x="-95" y="1260" width="155" height="30" as="geometry" />
        </mxCell>
        <mxCell id="cWW2CqV2LF-lZj4RDST2-103" value="" style="html=1;whiteSpace=wrap;aspect=fixed;shape=isoRectangle;" vertex="1" parent="cWW2CqV2LF-lZj4RDST2-102">
          <mxGeometry x="60" y="3" width="40" height="24" as="geometry" />
        </mxCell>
        <mxCell id="cWW2CqV2LF-lZj4RDST2-104" value="Si" style="text;html=1;align=center;verticalAlign=middle;resizable=0;points=[];autosize=1;strokeColor=none;fillColor=none;" vertex="1" parent="cWW2CqV2LF-lZj4RDST2-102">
          <mxGeometry x="5" width="30" height="30" as="geometry" />
        </mxCell>
        <mxCell id="cWW2CqV2LF-lZj4RDST2-105" value="No" style="text;html=1;align=center;verticalAlign=middle;resizable=0;points=[];autosize=1;strokeColor=none;fillColor=none;" vertex="1" parent="cWW2CqV2LF-lZj4RDST2-102">
          <mxGeometry x="115" width="40" height="30" as="geometry" />
        </mxCell>
      </root>
    </mxGraphModel>
  </diagram>
</mxfile>
